<?xml version="1.0" standalone="no"?>
<!DOCTYPE svg PUBLIC "-//W3C//DTD SVG 20010904//EN"
 "http://www.w3.org/TR/2001/REC-SVG-20010904/DTD/svg10.dtd">
<svg version="1.0" xmlns="http://www.w3.org/2000/svg"
 width="512.000000pt" height="512.000000pt" viewBox="0 0 512.000000 512.000000"
 preserveAspectRatio="xMidYMid meet">

<g transform="translate(0.000000,512.000000) scale(0.100000,-0.100000)"
fill="#591bcc" stroke="none">
<path d="M0 4865 l0 -255 257 -2 258 -3 457 -965 c252 -531 456 -973 454 -982
-2 -10 -81 -150 -176 -312 -99 -170 -181 -322 -192 -358 -13 -40 -22 -103 -25
-170 -5 -89 -2 -117 16 -176 38 -127 129 -236 249 -300 122 -65 30 -62 1750
-62 l1562 0 0 255 0 255 -1493 0 c-1435 0 -1495 1 -1510 18 -10 10 -17 30 -17
43 0 14 51 122 114 240 l113 214 1014 5 1014 5 56 23 c72 29 123 66 178 128
28 31 209 349 507 889 256 462 479 860 497 885 29 40 32 52 32 115 0 125 -72
220 -185 244 -36 8 -616 11 -1954 11 l-1903 0 -114 255 -114 255 -422 0 -423
0 0 -255z"/>
<path d="M1401 1004 c-83 -22 -150 -62 -222 -134 -105 -103 -149 -211 -149
-361 0 -194 97 -356 268 -447 198 -106 437 -69 597 92 277 277 154 739 -224
850 -67 20 -197 20 -270 0z"/>
<path d="M3961 1004 c-83 -22 -150 -62 -222 -134 -105 -103 -149 -211 -149
-361 0 -194 97 -356 268 -447 198 -106 437 -69 597 92 277 277 154 739 -224
850 -67 20 -197 20 -270 0z"/>
</g>

</svg>
